<?xml version="1.0" encoding="utf-8"?>
<!-- Generator: Adobe Illustrator 23.1.0, SVG Export Plug-In . SVG Version: 6.00 Build 0)  -->
<svg version="1.1" id="Layer_1" xmlns="http://www.w3.org/2000/svg" xmlns:xlink="http://www.w3.org/1999/xlink" x="0px" y="0px"
	 viewBox="0 0 812 110" style="enable-background:new 0 0 812 110;" xml:space="preserve">
<style type="text/css">
	.st0{filter:url(#Adobe_OpacityMaskFilter);}
	.st1{fill-rule:evenodd;clip-rule:evenodd;fill:#FFFFFF;}
	.st2{mask:url(#SVGID_1_);fill-rule:evenodd;clip-rule:evenodd;fill:#CCA775;}
	.st3{fill-rule:evenodd;clip-rule:evenodd;fill:none;stroke:#CCA775;stroke-miterlimit:10;}
</style>
<defs>
	<filter id="Adobe_OpacityMaskFilter" filterUnits="userSpaceOnUse" x="0" y="0" width="812" height="110">
		<feColorMatrix  type="matrix" values="1 0 0 0 0  0 1 0 0 0  0 0 1 0 0  0 0 0 1 0"/>
	</filter>
</defs>
<mask maskUnits="userSpaceOnUse" x="0" y="0" width="812" height="110" id="SVGID_1_">
	<g class="st0">
		<g>
			<g>
				<path class="st1" d="M152,13.15c-9.58-4.03-22.49-15.31-36-13c-21.52,3.68-13.6,18.09-42,0c-14.38,1.78-22.95,13.89-34,20
					c-0.33,23-0.67,46-1,69c-5.67-1-11.33-2-17-3c-3.33,3-6.67,6-10,9c-0.33,1.67-0.67,3.33-1,5c13.97,0.01,22.72,2.46,33,6
					c4.67-3.33,9.33-6.67,14-10c7.29-14.68,9.65-60.83,4-81c7.33,3.33,14.67,6.67,22,10c-0.08,25.2-1.49,60.05,5,80
					c6.33-2.67,12.67-5.33,19-8c-1-26.66-2-53.34-3-80c42.68,7.09,20.01,46.24,26,84c9.13,6.93,10.43-0.33,22-3
					c-1.33-10-2.67-20-4-30C150,49.82,151,31.48,152,13.15z"/>
			</g>
			<g>
				<path class="st1" d="M48,7.15c-11.67-2-23.33-4-35-6c-4.86,3.97-9.28,6.83-12,13c-0.67,0.67-1.33,1.33-2,2
					c18.94,0.24,32.65,0.13,46-5C46,9.82,47,8.48,48,7.15z"/>
			</g>
			<g>
				<path class="st1" d="M351,33.15c-5.33-0.33-10.67-0.67-16-1c0-5.67,0-11.33,0-17c8,1.33,16,2.67,24,4c1.33-2,2.67-4,4-6
					c0.67-0.67,1.33-1.33,2-2c-10.67-3.33-21.33-6.67-32-10c-16.62,15.49-16.83,18.04-27,40c3,0,6,0,9,0c0,19,0,38,0,57
					c1,1.67,2,3.33,3,5c6.23,3.41,10.92-1.19,19-4c-0.67-19.33-1.33-38.67-2-58c3.33-0.67,6.67-1.33,10-2
					C348.61,37.41,349.11,36.49,351,33.15z"/>
			</g>
			<g>
				<path class="st1" d="M526,1.15c-19.59,2.25-58.48,43.64-47,72c7.76,19.17,26.34,25.61,42,37c30.88-6.39,47.69-25.24,47-65
					c-21.15-0.1-37.01,1.71-51,7c-0.67,2.33-1.33,4.67-2,7c10.67-0.67,21.33-1.33,32-2c0.33,8.67,0.67,17.33,1,26c-5,3-10,6-15,9
					c-25.68-1.93-51.98-49.49-25-68c21.83-14.97,39.12,17.31,62-8c0-0.33,0-0.67,0-1C560.86,12.23,531.7,0.49,526,1.15z"/>
			</g>
			<g>
				<path class="st1" d="M696,9.15c-11.34,22.99-8.02,78.68,4,96c5.22-0.29,8.07-3.01,14-5c5.94-12.84,2.07-91.47-4-99
					C705.33,3.82,700.67,6.48,696,9.15z"/>
			</g>
			<g>
				<path class="st1" d="M268,8.15c-1.91,7.08-3.22,14.07-3,24c-39.58-0.26-36.32,29.95-33,66c12.1,6.75,35.19,9.89,51,2
					c6.88-7.79,0.73-86.21-1-98C277.33,4.15,272.67,6.15,268,8.15z M265,92.15c-6.48,1.7-9.41-0.58-15-2c-0.33-15-0.67-30-1-45
					c5.33,1.67,10.67,3.33,16,5C265,64.15,265,78.15,265,92.15z"/>
			</g>
			<g>
				<path class="st1" d="M746,19.15c0-1.67,0-3.33,0-5c-1.67-0.67-3.33-1.33-5-2c-4,2.67-8,5.33-12,8c-0.67,0-1.33,0-2,0
					c0,4,0,8,0,12C735.59,31.2,743.84,26.74,746,19.15z"/>
			</g>
			<g>
				<path class="st1" d="M190,31.15c-7,4.33-14,8.67-21,13c0,1.33,0,2.67,0,4c11.23,2.04,17.67-2.84,28,0c0.33,0.67,0.67,1.33,1,2
					c-17.88,13.45-33.64,11.68-33,45c13.37,14.66,26.98,3.98,43,11c3.67-2.33,7.33-4.67,11-7c2.21-2.82-1.96-45.74,1-57
					C214.13,36.78,199.4,32.01,190,31.15z M200,87.15c-1.65,4.72-4.18,5.75-8,8c-8.29-4.64-9.69-11.34-9-25c4.33-3,8.67-6,13-9
					C201.71,64.53,202.69,79.03,200,87.15z"/>
			</g>
			<g>
				<path class="st1" d="M352,52.15c-14.17,21.47,0.74,49.12,21,53c31.57,9.52,31.56-36.15,34-62c-8.71-6.1-18.27-12.08-33-12
					C366.67,38.15,359.33,45.15,352,52.15z M385,53.15c0.67,12.67,1.33,25.33,2,38c-0.67,0.67-1.33,1.33-2,2c-4.67-1-9.33-2-14-3
					c-0.33-15.33-0.67-30.67-1-46C376.09,46.4,382.07,47.59,385,53.15z"/>
			</g>
			<g>
				<path class="st1" d="M601,31.15c-6.67,4-13.33,8-20,12c-1,1.33-2,2.67-3,4c1.33,1,2.67,2,4,3c5.67-2.33,11.33-4.67,17-7
					c4.78,2.26,8.22,3.65,11,8c-10.61,8.03-23.1,13.13-33,21c-0.67,7-1.33,14-2,21c4.67,4,9.33,8,14,12c7.88,2.3,15.6-4.22,23-6
					c2,2.33,4,4.67,6,7c4-2,8-4,12-6c1.97-4.34,1.13-52.54-1-60C619.67,37.15,610.33,34.15,601,31.15z M611,92.15c-3,1-6,2-9,3
					c-2.33-1.67-4.67-3.33-7-5c0-7.67,0-15.33,0-23c3.67-2,7.33-4,11-6C613.2,64.63,611.61,81.44,611,92.15z"/>
			</g>
			<g>
				<path class="st1" d="M783,31.15c-6.67,5-13.33,10-20,15c-5.87,6.16-3.86,34.66-4,45c11.06,8.86,41.4,25.39,49,0
					c-0.67,0-1.33,0-2,0c-5.93-3.18-15.7,7.97-24,3c-8.31-6.67-5.5-35.32-5-50c11.53,3.51,26.74,6.56,34-4c0-0.33,0-0.67,0-1
					C801.67,36.48,792.33,33.82,783,31.15z"/>
			</g>
			<g>
				<path class="st1" d="M435,42.15c-3-3.33-6-6.67-9-10c-4,3.33-8,6.67-12,10c2.01,16.87,3.18,38.17,3,59c2.67,1.67,5.33,3.33,8,5
					c3.67-2,7.33-4,11-6c4.16-10.28-0.86-35.57-1-52c2-0.67,4-1.33,6-2c3.67,3.33,7.33,6.67,11,10c4-3,8-6,12-9
					C460.43,30.38,444.23,34.95,435,42.15z"/>
			</g>
			<g>
				<path class="st1" d="M679,34.15c-9.1,0.78-13.07,4.29-19,8c-2.93-5.35-2.78-7.75-9-10c-2,1.33-4,2.67-6,4
					c-6.15,13.24-5.18,48.99-2,65c6.48,4.82,6.61,4.26,15,1c6.96-9.87,4.04-36.95,4-54c1.67-0.67,3.33-1.33,5-2
					c3.67,3.33,7.33,6.67,11,10c4.49-3.68,7.2-5.43,10-11c-0.33-2-0.67-4-1-6C684.33,37.48,681.67,35.82,679,34.15z"/>
			</g>
			<g>
				<path class="st1" d="M742,32.15c-5,3-10,6-15,9c0,19,0,38,0,57c1,1.67,2,3.33,3,5c6.21,3.33,10.95-1.96,18-6
					C748.37,79.1,752.55,40.26,742,32.15z"/>
			</g>
		</g>
	</g>
</mask>
<rect class="st2" width="812" height="110"/>
<g>
	<g>
		<path class="st3" d="M152-205.85c-9.58-4.03-22.49-15.31-36-13c-21.52,3.68-13.6,18.09-42,0c-14.38,1.78-22.95,13.89-34,20
			c-0.33,23-0.67,46-1,69c-5.67-1-11.33-2-17-3c-3.33,3-6.67,6-10,9c-0.33,1.67-0.67,3.33-1,5c13.97,0.01,22.72,2.46,33,6
			c4.67-3.33,9.33-6.67,14-10c7.29-14.68,9.65-60.83,4-81c7.33,3.33,14.67,6.67,22,10c-0.08,25.2-1.49,60.05,5,80
			c6.33-2.67,12.67-5.33,19-8c-1-26.66-2-53.34-3-80c42.68,7.09,20.01,46.24,26,84c9.13,6.93,10.43-0.33,22-3c-1.33-10-2.67-20-4-30
			C150-169.18,151-187.52,152-205.85z"/>
	</g>
	<g>
		<path class="st3" d="M48-211.85c-11.67-2-23.33-4-35-6c-4.86,3.97-9.28,6.83-12,13c-0.67,0.67-1.33,1.33-2,2
			c18.94,0.24,32.65,0.13,46-5C46-209.18,47-210.52,48-211.85z"/>
	</g>
	<g>
		<path class="st3" d="M351-185.85c-5.33-0.33-10.67-0.67-16-1c0-5.67,0-11.33,0-17c8,1.33,16,2.67,24,4c1.33-2,2.67-4,4-6
			c0.67-0.67,1.33-1.33,2-2c-10.67-3.33-21.33-6.67-32-10c-16.62,15.49-16.83,18.04-27,40c3,0,6,0,9,0c0,19,0,38,0,57
			c1,1.67,2,3.33,3,5c6.23,3.41,10.92-1.19,19-4c-0.67-19.33-1.33-38.67-2-58c3.33-0.67,6.67-1.33,10-2
			C348.61-181.59,349.11-182.51,351-185.85z"/>
	</g>
	<g>
		<path class="st3" d="M526-217.85c-19.59,2.25-58.48,43.64-47,72c7.76,19.17,26.34,25.61,42,37c30.88-6.39,47.69-25.24,47-65
			c-21.15-0.1-37.01,1.71-51,7c-0.67,2.33-1.33,4.67-2,7c10.67-0.67,21.33-1.33,32-2c0.33,8.67,0.67,17.33,1,26c-5,3-10,6-15,9
			c-25.68-1.93-51.98-49.49-25-68c21.83-14.97,39.12,17.31,62-8c0-0.33,0-0.67,0-1C560.86-206.77,531.7-218.51,526-217.85z"/>
	</g>
	<g>
		<path class="st3" d="M696-209.85c-11.34,22.99-8.02,78.68,4,96c5.22-0.29,8.07-3.01,14-5c5.94-12.84,2.07-91.47-4-99
			C705.33-215.18,700.67-212.52,696-209.85z"/>
	</g>
	<g>
		<path class="st3" d="M268-210.85c-1.91,7.08-3.22,14.07-3,24c-39.58-0.26-36.32,29.95-33,66c12.1,6.75,35.19,9.89,51,2
			c6.88-7.79,0.73-86.21-1-98C277.33-214.85,272.67-212.85,268-210.85z M265-126.85c-6.48,1.7-9.41-0.58-15-2c-0.33-15-0.67-30-1-45
			c5.33,1.67,10.67,3.33,16,5C265-154.85,265-140.85,265-126.85z"/>
	</g>
	<g>
		<path class="st3" d="M746-199.85c0-1.67,0-3.33,0-5c-1.67-0.67-3.33-1.33-5-2c-4,2.67-8,5.33-12,8c-0.67,0-1.33,0-2,0
			c0,4,0,8,0,12C735.59-187.8,743.84-192.26,746-199.85z"/>
	</g>
	<g>
		<path class="st3" d="M190-187.85c-7,4.33-14,8.67-21,13c0,1.33,0,2.67,0,4c11.23,2.04,17.67-2.84,28,0c0.33,0.67,0.67,1.33,1,2
			c-17.88,13.45-33.64,11.68-33,45c13.37,14.66,26.98,3.98,43,11c3.67-2.33,7.33-4.67,11-7c2.21-2.82-1.96-45.74,1-57
			C214.13-182.22,199.4-186.99,190-187.85z M200-131.85c-1.65,4.72-4.18,5.75-8,8c-8.29-4.64-9.69-11.34-9-25c4.33-3,8.67-6,13-9
			C201.71-154.47,202.69-139.97,200-131.85z"/>
	</g>
	<g>
		<path class="st3" d="M352-166.85c-14.17,21.47,0.74,49.12,21,53c31.57,9.52,31.56-36.15,34-62c-8.71-6.1-18.27-12.08-33-12
			C366.67-180.85,359.33-173.85,352-166.85z M385-165.85c0.67,12.67,1.33,25.33,2,38c-0.67,0.67-1.33,1.33-2,2c-4.67-1-9.33-2-14-3
			c-0.33-15.33-0.67-30.67-1-46C376.09-172.6,382.07-171.41,385-165.85z"/>
	</g>
	<g>
		<path class="st3" d="M601-187.85c-6.67,4-13.33,8-20,12c-1,1.33-2,2.67-3,4c1.33,1,2.67,2,4,3c5.67-2.33,11.33-4.67,17-7
			c4.78,2.26,8.22,3.65,11,8c-10.61,8.03-23.1,13.13-33,21c-0.67,7-1.33,14-2,21c4.67,4,9.33,8,14,12c7.88,2.3,15.6-4.22,23-6
			c2,2.33,4,4.67,6,7c4-2,8-4,12-6c1.97-4.34,1.13-52.54-1-60C619.67-181.85,610.33-184.85,601-187.85z M611-126.85c-3,1-6,2-9,3
			c-2.33-1.67-4.67-3.33-7-5c0-7.67,0-15.33,0-23c3.67-2,7.33-4,11-6C613.2-154.37,611.61-137.56,611-126.85z"/>
	</g>
	<g>
		<path class="st3" d="M783-187.85c-6.67,5-13.33,10-20,15c-5.87,6.16-3.86,34.66-4,45c11.06,8.86,41.4,25.39,49,0
			c-0.67,0-1.33,0-2,0c-5.93-3.18-15.7,7.97-24,3c-8.31-6.67-5.5-35.32-5-50c11.53,3.51,26.74,6.56,34-4c0-0.33,0-0.67,0-1
			C801.67-182.52,792.33-185.18,783-187.85z"/>
	</g>
	<g>
		<path class="st3" d="M435-176.85c-3-3.33-6-6.67-9-10c-4,3.33-8,6.67-12,10c2.01,16.87,3.18,38.17,3,59c2.67,1.67,5.33,3.33,8,5
			c3.67-2,7.33-4,11-6c4.16-10.28-0.86-35.57-1-52c2-0.67,4-1.33,6-2c3.67,3.33,7.33,6.67,11,10c4-3,8-6,12-9
			C460.43-188.62,444.23-184.05,435-176.85z"/>
	</g>
	<g>
		<path class="st3" d="M679-184.85c-9.1,0.78-13.07,4.29-19,8c-2.93-5.35-2.78-7.75-9-10c-2,1.33-4,2.67-6,4
			c-6.15,13.24-5.18,48.99-2,65c6.48,4.82,6.61,4.26,15,1c6.96-9.87,4.04-36.95,4-54c1.67-0.67,3.33-1.33,5-2
			c3.67,3.33,7.33,6.67,11,10c4.49-3.68,7.2-5.43,10-11c-0.33-2-0.67-4-1-6C684.33-181.52,681.67-183.18,679-184.85z"/>
	</g>
	<g>
		<path class="st3" d="M742-186.85c-5,3-10,6-15,9c0,19,0,38,0,57c1,1.67,2,3.33,3,5c6.21,3.33,10.95-1.96,18-6
			C748.37-139.9,752.55-178.74,742-186.85z"/>
	</g>
</g>
</svg>
