<?xml version="1.0" encoding="utf-8"?>
<!-- Generator: Adobe Illustrator 23.1.0, SVG Export Plug-In . SVG Version: 6.00 Build 0)  -->
<svg version="1.1" id="Layer_1" xmlns="http://www.w3.org/2000/svg" xmlns:xlink="http://www.w3.org/1999/xlink" x="0px" y="0px"
	 viewBox="0 0 812 110.31" style="enable-background:new 0 0 812 110.31;" xml:space="preserve">
<style type="text/css">
	.st0{fill:none;stroke:#CCA775;stroke-width:2;stroke-miterlimit:10;}
</style>
<g>
	<path class="st0" d="M120.69,1c8.18,0,16.13,4.57,23.15,8.6c2.87,1.65,5.6,3.22,8.13,4.35L149,68.25v0.1l0.01,0.09l3.88,29.11
		c-3.77,0.99-6.45,2.44-8.63,3.62c-2.11,1.14-3.77,2.05-5.56,2.05c-1.65,0-3.49-0.79-5.78-2.47c-1.77-11.54-0.88-23.02-0.02-34.13
		c1.88-24.29,3.51-45.27-26.74-50.3l-1.21-0.2l0.05,1.22l2.97,79.31l-17.35,7.31c-5.21-17.15-4.93-45.13-4.71-67.71
		c0.04-3.83,0.07-7.46,0.08-10.94v-0.65l-0.59-0.27l-22-10l-1.96-0.89l0.58,2.07c5.54,19.79,3.35,65.2-3.82,80.06l-13.37,9.55
		c-9.15-3.14-17.96-5.73-31.62-5.88l0.7-3.49l9.39-8.45l16.52,2.92l1.16,0.2L41,89.32l0.33-23l0.66-45.43
		c3.72-2.13,7.22-4.95,10.6-7.67C59.11,7.99,65.85,2.57,74.77,1.35c9.94,6.31,15.78,8.89,20.13,8.89c3.29,0,5.53-1.47,8.11-3.17
		c3.06-2.01,6.88-4.52,14.16-5.77C118.31,1.1,119.5,1,120.69,1 M120.69,0c-1.22,0-2.45,0.1-3.69,0.31
		c-13.58,2.33-15.44,8.92-22.1,8.92c-3.89,0-9.43-2.25-19.9-8.92c-14.38,1.78-22.95,13.89-34,20c-0.33,23-0.67,46-1,69
		c-5.67-1-11.33-2-17-3c-3.33,3-6.67,6-10,9c-0.33,1.67-0.67,3.33-1,5c13.97,0.01,22.72,2.46,33,6c4.67-3.33,9.33-6.67,14-10
		c7.29-14.68,9.65-60.83,4-81c7.33,3.33,14.67,6.67,22,10c-0.08,25.2-1.49,60.05,5,80c6.33-2.67,12.67-5.33,19-8
		c-1-26.66-2-53.34-3-80c42.68,7.09,20.01,46.24,26,84c2.8,2.12,4.86,2.91,6.71,2.91c4.18,0,7.27-4.06,15.29-5.91
		c-1.33-10-2.67-20-4-30c1-18.33,2-36.67,3-55C144.3,9.65,132.84,0,120.69,0L120.69,0z"/>
</g>
<g>
	<path class="st0" d="M14.28,2.37L25.5,4.29l21.72,3.72L46.2,9.38l-0.83,1.1c-10.77,4.08-21.94,4.9-36.42,4.9
		c-2.2,0-4.46-0.02-6.56-0.04l0.32-0.32l0.13-0.13l0.08-0.17c2.23-5.08,5.68-7.83,9.68-11C13.15,3.28,13.71,2.83,14.28,2.37
		 M14,1.31c-4.86,3.97-9.28,6.83-12,13c-0.67,0.67-1.33,1.33-2,2c3.12,0.04,6.09,0.07,8.95,0.07c14.49,0,25.89-0.79,37.05-5.07
		c1-1.33,2-2.67,3-4C37.33,5.31,25.67,3.31,14,1.31L14,1.31z"/>
</g>
<g>
	<path class="st0" d="M334.26,2.44l29.87,9.33l-0.83,0.83l-0.07,0.07l-0.05,0.08l-3.64,5.46l-23.36-3.89L335,14.13v1.18v17v0.94
		l0.94,0.06l14.4,0.9c-1.25,2.12-1.96,2.83-4.66,4.15l-9.87,1.97l-0.83,0.17l0.03,0.85l1.97,57.27c-2.02,0.74-3.83,1.58-5.46,2.34
		c-2.97,1.38-5.54,2.57-8.03,2.57c-1.28,0-2.52-0.31-3.77-0.96l-0.66-1.1L317,98.03V41.31v-1h-1h-7.44
		c0.68-1.48,1.32-2.88,1.92-4.19C318.25,19.21,319.71,16.02,334.26,2.44 M334,1.31c-16.62,15.49-16.83,18.04-27,40c3,0,6,0,9,0
		c0,19,0,38,0,57c1,1.67,2,3.33,3,5c1.57,0.86,3.04,1.21,4.49,1.21c4.32,0,8.47-3.11,14.51-5.21c-0.67-19.33-1.33-38.67-2-58
		c3.33-0.67,6.67-1.33,10-2c3.61-1.74,4.11-2.66,6-6c-5.33-0.33-10.67-0.67-16-1c0-5.67,0-11.33,0-17c8,1.33,16,2.67,24,4
		c1.33-2,2.67-4,4-6c0.67-0.67,1.33-1.33,2-2C355.33,7.98,344.67,4.64,334,1.31L334,1.31z"/>
</g>
<g>
	<path class="st0" d="M527.51,2.28c4.62,0,20.21,5.7,31.6,9.86c4.37,1.6,8.19,3,10.81,3.86c-5.89,6.38-11.78,9.36-18.5,9.36
		c-4.86,0-9.73-1.56-14.44-3.06c-4.85-1.55-9.87-3.15-15.03-3.15c-4.84,0-9.26,1.42-13.51,4.33c-10.42,7.15-14.17,19.5-10.29,33.89
		c5.04,18.71,21.09,34.83,35.78,35.94l0.32,0.02l0.27-0.16l7.5-4.5l7.5-4.5l0.51-0.3l-0.03-0.6l-0.5-13l-0.5-13l-0.04-1.02
		l-1.02,0.06l-16,1l-14.59,0.91l1.47-5.15c12.74-4.74,27.32-6.76,48.6-6.76c0.2,0,0.39,0,0.59,0c0.19,18.81-3.56,33.02-11.47,43.41
		c-7.48,9.83-18.71,16.22-34.31,19.52c-3.97-2.86-8.14-5.43-12.18-7.92c-12.08-7.44-23.49-14.47-29.12-28.39
		c-4.06-10.04-1.83-23.08,6.28-36.74c10.12-17.05,28.4-32.57,39.91-33.89C527.23,2.29,527.37,2.28,527.51,2.28 M527.51,1.28
		c-0.19,0-0.36,0.01-0.51,0.03c-19.59,2.25-58.48,43.64-47,72c7.76,19.17,26.34,25.61,42,37c30.88-6.39,47.69-25.24,47-65
		c-0.53,0-1.05,0-1.57,0c-20.36,0-35.78,1.84-49.43,7c-0.67,2.33-1.33,4.67-2,7c10.67-0.67,21.33-1.33,32-2
		c0.33,8.67,0.67,17.33,1,26c-5,3-10,6-15,9c-25.68-1.93-51.98-49.49-25-68c4.48-3.07,8.76-4.16,12.95-4.15
		c10.02,0,19.44,6.21,29.47,6.21c6.2,0,12.63-2.37,19.58-10.06c0-0.33,0-0.67,0-1C562.1,12.47,534.27,1.28,527.51,1.28L527.51,1.28z
		"/>
</g>
<g>
	<path class="st0" d="M710.67,2.65c2.43,4.77,4.84,23.6,5.84,46.21c1.08,24.46,0.18,44.61-2.25,50.64
		c-2.12,0.74-3.87,1.58-5.43,2.32c-2.54,1.21-4.58,2.19-7.33,2.44c-5.4-8.21-9.32-25.31-10.27-44.88
		c-0.99-20.44,1.45-38.85,6.53-49.36L710.67,2.65 M711,1.31c-4.67,2.67-9.33,5.33-14,8c-11.34,22.99-8.02,78.69,4,96
		c5.22-0.29,8.07-3.01,14-5C720.94,87.47,717.07,8.84,711,1.31L711,1.31z"/>
</g>
<g>
	<path class="st0" d="M282.18,3.75c0.89,7.11,2.69,27.85,3.55,49.1c1.49,36.87-1.07,44.92-2.37,46.66
		c-5.93,2.91-13.38,4.45-21.55,4.45c-10.04,0-20.65-2.4-27.87-6.27l-0.07-0.72c-2.18-23.6-4.06-43.99,5.98-55
		c5.31-5.82,13.7-8.65,25.64-8.65h0.49l1.03,0.01L267,32.29c-0.21-9.54,0.97-16.24,2.84-23.25L282.18,3.75 M283,2.31
		c-4.67,2-9.33,4-14,6c-1.91,7.08-3.22,14.07-3,24c-0.17,0-0.33,0-0.5,0c-39.05,0-35.81,30.11-32.5,66
		c7.07,3.94,17.89,6.65,28.82,6.65c7.78,0,15.61-1.37,22.18-4.65C290.88,92.52,284.73,14.1,283,2.31L283,2.31z"/>
</g>
<g>
	<path class="st0" d="M742.12,13.43l3.88,1.55v4.18c-1.81,6.12-8.41,10.75-17,12.01v-9.86h1h0.3l0.25-0.17L742.12,13.43 M742,12.31
		c-4,2.67-8,5.33-12,8c-0.67,0-1.33,0-2,0c0,4,0,8,0,12c8.59-0.95,16.84-5.41,19-13c0-1.67,0-3.33,0-5
		C745.33,13.64,743.67,12.98,742,12.31L742,12.31z"/>
</g>
<g>
	<path class="st0" d="M191.24,32.34c9.04,0.9,22.82,5.41,28.65,10.33c-1.48,6.63-0.99,21.55-0.56,34.76
		c0.3,9.15,0.64,19.5-0.07,21.17l-10.35,6.59c-5.43-2.27-10.51-2.59-15.21-2.59c-1.16,0-2.3,0.02-3.44,0.04
		c-1.11,0.02-2.2,0.04-3.29,0.04c-6.44,0-13.29-0.61-19.97-7.76c-0.38-24.38,8.25-29.25,20.17-35.97c3.79-2.14,8.09-4.56,12.44-7.83
		l0.67-0.5l-0.37-0.75l-0.67-1.33l-0.33-0.67l-0.2-0.4l-0.43-0.12c-2.32-0.64-4.64-0.95-7.08-0.95c-2.62,0-5.12,0.36-7.54,0.7
		c-2.51,0.36-5.1,0.73-7.92,0.73c-1.61,0-3.16-0.12-4.73-0.36v-2.6l6.53-4.04L191.24,32.34 M191,31.31c-7,4.33-14,8.67-21,13
		c0,1.33,0,2.67,0,4c2.05,0.37,3.94,0.51,5.73,0.51c5.67,0,10.25-1.43,15.46-1.43c2.13,0,4.36,0.24,6.82,0.91
		c0.33,0.67,0.67,1.33,1,2c-17.88,13.45-33.64,11.68-33,45c6.83,7.49,13.72,8.37,20.97,8.37c2.21,0,4.45-0.08,6.73-0.08
		c4.89,0,9.96,0.37,15.3,2.71c3.67-2.33,7.33-4.67,11-7c2.21-2.82-1.96-45.74,1-57C215.13,36.94,200.4,32.17,191,31.31L191,31.31z"
		/>
</g>
<g>
	<path class="st0" d="M375.4,32.31c13.78,0.03,22.82,5.41,31.55,11.49c-0.22,2.43-0.43,5.02-0.64,7.74
		c-1.8,22.81-4.26,54.06-24.37,54.06c-2.34,0-4.92-0.42-7.65-1.24l-0.05-0.01l-0.05-0.01c-9.76-1.87-18.56-9.53-22.98-20
		c-4.48-10.63-3.55-22.05,2.56-31.38L375.4,32.31 M375.28,31.31c-0.09,0-0.19,0-0.28,0c-7.33,7-14.67,14-22,21
		c-14.17,21.47,0.74,49.12,21,53c2.9,0.88,5.54,1.28,7.94,1.28c23.65,0,23.85-39.81,26.06-63.28
		C399.35,37.25,389.85,31.31,375.28,31.31L375.28,31.31z"/>
</g>
<g>
	<path class="st0" d="M602.13,32.4l23.42,7.53l3.62,1.16c1.89,8.42,2.67,52.95,1.03,58.5l-10.95,5.47l-0.06-0.07l-5.43-6.33
		l-0.4-0.46l-0.59,0.14c-2.61,0.63-5.28,1.83-7.85,3c-3.77,1.7-7.66,3.46-11.45,3.46c-1.04,0-2.02-0.13-2.98-0.39l-9.17-7.86
		l-4.27-3.66l1.91-20.06c4.95-3.88,10.46-7.04,16.28-10.38c5.49-3.15,11.17-6.41,16.37-10.34l0.74-0.56l-0.5-0.78
		c-2.74-4.29-6.15-5.89-10.46-7.92l-0.96-0.45l-0.4-0.19l-0.41,0.17l-12.95,5.33l-3.52,1.45l-1.32-0.99l-1.42-1.07l2.28-3.04
		l16.5-9.9L602.13,32.4 M602,31.31c-6.67,4-13.33,8-20,12c-1,1.33-2,2.67-3,4c1.33,1,2.67,2,4,3c5.67-2.33,11.33-4.67,17-7
		c4.78,2.26,8.22,3.65,11,8c-10.61,8.03-23.1,13.13-33,21c-0.67,7-1.33,14-2,21c4.67,4,9.33,8,14,12c1.16,0.34,2.31,0.49,3.46,0.49
		c6.68,0,13.23-4.97,19.54-6.49c2,2.33,4,4.67,6,7c4-2,8-4,12-6c1.97-4.34,1.13-52.54-1-60C620.67,37.31,611.33,34.31,602,31.31
		L602,31.31z"/>
</g>
<g>
	<path class="st0" d="M784.2,32.41l8.86,2.53l17.9,5.11c-3.18,4.4-8.09,6.54-14.99,6.54c-6.31,0-13.11-1.85-17.67-3.24l-1.25-0.38
		l-0.04,1.3c-0.07,2.04-0.18,4.37-0.31,6.85c-0.79,16-1.87,37.91,5.68,43.97l0.05,0.04l0.06,0.04c1.59,0.95,3.38,1.44,5.3,1.44
		c3.34,0,6.6-1.39,9.75-2.74c2.58-1.1,5.01-2.14,7-2.14c0.76,0,1.41,0.15,2,0.46l0.22,0.12H807h0.62
		c-2.7,7.65-7.97,11.52-15.7,11.52c-11.38,0-24.96-8.33-30.92-13c0.01-1.96-0.04-4.47-0.09-7.34c-0.24-11.86-0.63-31.67,3.76-36.44
		l14.38-10.78L784.2,32.41 M784,31.31c-6.67,5-13.33,10-20,15c-5.87,6.16-3.86,34.66-4,45c6.69,5.36,20.43,13.52,31.92,13.52
		c7.51,0,14.07-3.49,17.08-13.52c-0.67,0-1.33,0-2,0c-0.76-0.41-1.59-0.58-2.47-0.58c-4.67,0-10.82,4.88-16.75,4.88
		c-1.62,0-3.23-0.37-4.78-1.3c-8.31-6.67-5.5-35.32-5-50c5.57,1.7,11.99,3.28,17.96,3.28c6.4,0,12.28-1.82,16.04-7.28
		c0-0.33,0-0.67,0-1C802.67,36.64,793.33,33.98,784,31.31L784,31.31z"/>
</g>
<g>
	<path class="st0" d="M426.9,33.69l1.61,1.78l6.75,7.5l0.62,0.69l0.73-0.57c4.97-3.87,11.04-6.28,15.85-6.28
		c5.97,0,9.81,3.39,11.41,10.08l-10.82,8.12l-8.56-7.78l-1.83-1.67l-0.43-0.39l-0.56,0.19l-6,2l-0.69,0.23l0.01,0.73
		c0.05,5.67,0.68,12.5,1.3,19.11c1.17,12.56,2.37,25.53-0.1,32.18l-8.85,4.83l-1.32,0.72l-1.64-1.02l-5.39-3.37
		c0.15-19.67-0.92-40.75-2.95-58.03L426.9,33.69 M427,32.31c-4,3.33-8,6.67-12,10c2,16.87,3.18,38.17,3,59c2.67,1.67,5.33,3.33,8,5
		c3.67-2,7.33-4,11-6c4.16-10.28-0.86-35.57-1-52c2-0.67,4-1.33,6-2c3.67,3.33,7.33,6.67,11,10c4-3,8-6,12-9
		c-1.8-8.46-6.82-11.49-12.53-11.49c-5.61,0-11.89,2.92-16.47,6.49C433,38.98,430,35.64,427,32.31L427,32.31z"/>
</g>
<g>
	<path class="st0" d="M652.13,33.42c4.15,1.59,4.9,3.14,6.48,6.39c0.42,0.87,0.9,1.86,1.51,2.97l0.51,0.93l0.9-0.56
		c0.9-0.56,1.76-1.12,2.59-1.67c4.49-2.93,8.37-5.47,15.63-6.15l1.49,0.93l5.84,3.65l0.34,2.06l0.53,3.18
		c-2.32,4.51-4.63,6.37-8.07,9.15c-0.28,0.22-0.56,0.45-0.85,0.69l-0.28-0.25l-10.08-9.17l-0.46-0.42l-0.58,0.23l-2.5,1l-2.5,1
		L662,47.63v0.68c0.01,3.68,0.15,7.79,0.3,12.14c0.51,14.9,1.14,33.4-3.95,41.03c-0.44,0.17-0.85,0.33-1.24,0.49
		c-2.96,1.16-4.75,1.87-6.17,1.87c-1.54,0-2.89-0.78-6.03-3.11c-3.21-16.64-3.82-50.99,1.88-63.75L652.13,33.42 M652,32.31
		c-2,1.33-4,2.67-6,4c-6.15,13.24-5.18,48.99-2,65c3.33,2.48,4.98,3.53,6.94,3.53c1.85,0,3.98-0.95,8.06-2.53
		c6.96-9.87,4.04-36.95,4-54c1.67-0.67,3.33-1.33,5-2c3.67,3.33,7.33,6.67,11,10c4.49-3.68,7.2-5.43,10-11c-0.33-2-0.67-4-1-6
		c-2.67-1.67-5.33-3.33-8-5c-9.1,0.78-13.07,4.29-19,8C658.07,36.96,658.22,34.56,652,32.31L652,32.31z"/>
</g>
<g>
	<path class="st0" d="M742.9,33.53c7.72,7.12,6.41,34.4,5.54,52.59c-0.18,3.87-0.36,7.53-0.43,10.6c-1.42,0.84-2.73,1.7-4,2.54
		c-3.32,2.19-6.18,4.09-9.07,4.09c-1.09,0-2.15-0.26-3.23-0.81L729,98.03V41.88l10.35-6.21L742.9,33.53 M743,32.31c-5,3-10,6-15,9
		c0,19,0,38,0,57c1,1.67,2,3.33,3,5c1.37,0.74,2.68,1.05,3.95,1.05c4.47,0,8.56-3.9,14.05-7.05C749.37,79.26,753.55,40.42,743,32.31
		L743,32.31z"/>
</g>
<g>
	<path class="st0" d="M372.03,45.74c0.52,0.18,1.03,0.36,1.54,0.53c4.9,1.68,9.14,3.13,11.44,7.31l1.96,37.33l-1.3,1.3l-12.7-2.72
		L372.03,45.74 M371,44.31c0.33,15.33,0.67,30.67,1,46c4.67,1,9.33,2,14,3c0.67-0.67,1.33-1.33,2-2c-0.67-12.67-1.33-25.33-2-38
		C383.07,47.74,377.09,46.56,371,44.31L371,44.31z"/>
</g>
<g>
	<path class="st0" d="M251.03,46.68l6.67,2.08l7.3,2.28v40.48c-1.18,0.26-2.27,0.39-3.32,0.39c-2.36,0-4.29-0.64-6.53-1.39
		c-1-0.33-2.02-0.67-3.16-0.99l-0.65-29.25L251.03,46.68 M250,45.31c0.33,15,0.67,30,1,45c4.18,1.06,6.87,2.6,10.68,2.6
		c1.28,0,2.69-0.17,4.32-0.6c0-14,0-28,0-42C260.67,48.64,255.33,46.98,250,45.31L250,45.31z"/>
</g>
<g>
	<path class="st0" d="M197,62.52c4.56,3.57,5.64,16.65,3.05,24.46c-1.36,3.9-3.27,5-6.44,6.82c-0.2,0.12-0.41,0.23-0.62,0.35
		c-7.54-4.46-8.62-10.9-8.02-23.3L197,62.52 M197,61.31c-4.33,3-8.67,6-13,9c-0.69,13.66,0.71,20.36,9,25c3.82-2.25,6.35-3.28,8-8
		C203.69,79.19,202.71,64.69,197,61.31L197,61.31z"/>
</g>
<g>
	<path class="st0" d="M607,62.45c5.6,3.43,4.73,17.8,4.14,27.39c-0.04,0.59-0.07,1.17-0.1,1.73l-5.36,1.79l-2.52,0.84l-6.17-4.4
		V67.9L607,62.45 M607,61.31c-3.67,2-7.33,4-11,6c0,7.67,0,15.33,0,23c2.33,1.67,4.67,3.33,7,5c3-1,6-2,9-3
		C612.61,81.6,614.2,64.79,607,61.31L607,61.31z"/>
</g>
</svg>
